<?xml version="1.0" encoding="UTF-8"?>
<svg width="56px" height="42px" viewBox="0 0 56 42" version="1.1" xmlns="http://www.w3.org/2000/svg" xmlns:xlink="http://www.w3.org/1999/xlink">
    <!-- Generator: Sketch 63.1 (92452) - https://sketch.com -->
    <title>30-rewind@2x</title>
    <desc>Created with Sketch.</desc>
    <defs>
        <rect id="path-1" x="0" y="0" width="56" height="42"></rect>
    </defs>
    <g id="Page-1" stroke="none" stroke-width="1" fill="none" fill-rule="evenodd">
        <g id="30-rewind">
            <mask id="mask-2" fill="white">
                <use xlink:href="#path-1"></use>
            </mask>
            <rect stroke-opacity="0.01" stroke="#979797" x="0.5" y="0.5" width="55" height="41"></rect>
            <path d="M25.2636719,25.1171875 C26.1191406,25.1171875 26.8095703,24.890625 27.3349609,24.4375 C27.8603516,23.984375 28.1230469,23.375 28.1230469,22.609375 C28.1230469,22.1328125 28.0009766,21.7226562 27.7568359,21.3789062 C27.5126953,21.0351562 27.15625,20.7832031 26.6875,20.6230469 C27.0742188,20.4511719 27.3896484,20.1962891 27.6337891,19.8583984 C27.8779297,19.5205078 28,19.1601562 28,18.7773438 C28,18.015625 27.7568359,17.4208984 27.2705078,16.9931641 C26.7841797,16.5654297 26.1152344,16.3515625 25.2636719,16.3515625 C24.7480469,16.3515625 24.2822266,16.4521484 23.8662109,16.6533203 C23.4501953,16.8544922 23.1259766,17.1347656 22.8935547,17.4941406 C22.6611328,17.8535156 22.5449219,18.2519531 22.5449219,18.6894531 L22.5449219,18.6894531 L23.96875,18.6894531 C23.96875,18.3339844 24.0917969,18.0458984 24.3378906,17.8251953 C24.5839844,17.6044922 24.8984375,17.4941406 25.28125,17.4941406 C25.71875,17.4941406 26.0439453,17.6064453 26.2568359,17.8310547 C26.4697266,18.0556641 26.5761719,18.3710938 26.5761719,18.7773438 C26.5761719,19.1992188 26.4482422,19.5214844 26.1923828,19.7441406 C25.9365234,19.9667969 25.5898438,20.0800781 25.1523438,20.0839844 L25.1523438,20.0839844 L24.2851562,20.0839844 L24.2851562,21.2089844 L25.1230469,21.2089844 C25.6464844,21.2089844 26.0410156,21.3300781 26.3066406,21.5722656 C26.5722656,21.8144531 26.7050781,22.1601562 26.7050781,22.609375 C26.7050781,23.0546875 26.578125,23.3945312 26.3242188,23.6289062 C26.0703125,23.8632812 25.7226562,23.9804688 25.28125,23.9804688 C24.8554688,23.9804688 24.5166016,23.8632812 24.2646484,23.6289062 C24.0126953,23.3945312 23.8867188,23.0898438 23.8867188,22.7148438 L23.8867188,22.7148438 L22.4628906,22.7148438 C22.4628906,23.4414062 22.7246094,24.0234375 23.2480469,24.4609375 C23.7714844,24.8984375 24.4433594,25.1171875 25.2636719,25.1171875 Z M31.9363281,25.1171875 C32.8738281,25.1171875 33.5720703,24.8056641 34.0310547,24.1826172 C34.4900391,23.5595703 34.7195313,22.6347656 34.7195313,21.4082031 L34.7195313,21.4082031 L34.7195313,19.9316406 C34.7078125,18.7402344 34.4724609,17.8457031 34.0134766,17.2480469 C33.5544922,16.6503906 32.8582031,16.3515625 31.9246094,16.3515625 C30.9832031,16.3515625 30.2830078,16.6582031 29.8240234,17.2714844 C29.3650391,17.8847656 29.1355469,18.8046875 29.1355469,20.03125 L29.1355469,20.03125 L29.1355469,21.5078125 C29.1472656,22.6992188 29.3865234,23.5986328 29.8533203,24.2060547 C30.3201172,24.8134766 31.0144531,25.1171875 31.9363281,25.1171875 Z M31.9363281,23.9804688 C31.4597656,23.9804688 31.1101562,23.7851562 30.8875,23.3945312 C30.6648437,23.0039062 30.5535156,22.4101562 30.5535156,21.6132812 L30.5535156,21.6132812 L30.5535156,19.6796875 C30.5652344,18.9296875 30.6804687,18.3779297 30.8992187,18.0244141 C31.1179687,17.6708984 31.4597656,17.4941406 31.9246094,17.4941406 C32.4011719,17.4941406 32.7488281,17.6806641 32.9675781,18.0537109 C33.1863281,18.4267578 33.2957031,19.0136719 33.2957031,19.8144531 L33.2957031,19.8144531 L33.2957031,21.7421875 C33.2839844,22.5117188 33.16875,23.0771484 32.95,23.4384766 C32.73125,23.7998047 32.3933594,23.9804688 31.9363281,23.9804688 Z" id="30" fill="#FFFFFF" fill-rule="nonzero" mask="url(#mask-2)"></path>
            <g id="Group-Copy" mask="url(#mask-2)" stroke="#FFFFFF" stroke-linecap="round" stroke-linejoin="round" stroke-width="1.5">
                <g transform="translate(28.000000, 19.500000) scale(-1, 1) rotate(-135.000000) translate(-28.000000, -19.500000) translate(15.000000, 6.000000)" id="Path">
                    <path d="M2.6200237,20.8398073 C4.97713584,23.5103578 8.45991975,25.1999993 12.3453173,25.1999993 C19.4447622,25.1999993 25.1999993,19.5587873 25.1999993,12.5999997 C25.1999993,5.641212 19.4447622,-1.02318151e-13 12.3453173,-1.02318151e-13 C6.49360735,-1.02318151e-13 1.55513369,3.83256236 -5.11590756e-14,9.07652216"></path>
                    <polyline points="2.43639604 26.2091876 2.43639604 20.8091878 7.8363959 20.8091878"></polyline>
                </g>
            </g>
        </g>
    </g>
</svg>