<?xml version="1.0" encoding="UTF-8"?>
<svg width="129px" height="129px" viewBox="0 0 129 129" version="1.1" xmlns="http://www.w3.org/2000/svg" xmlns:xlink="http://www.w3.org/1999/xlink">
    <!-- Generator: Sketch 63.1 (92452) - https://sketch.com -->
    <title>play-button</title>
    <desc>Created with Sketch.</desc>
    <g id="Page-1" stroke="none" stroke-width="1" fill="none" fill-rule="evenodd">
        <g id="play-button" fill="#FF7D02" fill-rule="nonzero">
            <path d="M64.2252807,118.352641 C49.767317,118.352641 36.1746385,112.722392 25.9512784,102.499032 C15.7279182,92.2759229 10.0979201,78.6832444 10.0979201,64.2252807 C10.0979201,55.466558 12.2389301,46.7660395 16.2893877,39.0645252 C20.2093877,31.6111312 25.9098832,25.0769615 32.7744618,20.1679925 C34.7486365,18.7560399 36.9375646,21.8172777 34.9633898,23.2289794 C28.573727,27.7980061 23.2683676,33.8795882 19.6200706,40.8161694 C15.8526056,47.979797 13.8611201,56.0744403 13.8611201,64.2252807 C13.8611201,91.9961917 36.4543697,114.589441 64.2252807,114.589441 C91.9961917,114.589441 114.589441,91.9961917 114.589441,64.2252807 C114.589441,36.4543697 91.9961917,13.8611201 64.2252807,13.8611201 C57.7018989,13.8611201 51.3553874,15.0894286 45.3618642,17.5121768 C43.1114705,18.421366 41.701274,14.9326286 43.9516677,14.0231886 C50.3952697,11.4185524 57.216446,10.0979201 64.2252807,10.0979201 C78.6832444,10.0979201 92.2759229,15.7281691 102.499283,25.9515292 C112.722643,36.1748893 118.352641,49.767317 118.352641,64.2252807 C118.352641,78.6832444 112.722643,92.2759229 102.499283,102.499032 C92.2759229,112.722392 78.6832444,118.352641 64.2252807,118.352641 Z" id="Path"></path>
            <path d="M64.2252807,128.450561 C47.0701061,128.450561 30.9415325,121.769878 18.8109826,109.639579 C6.68068359,97.508778 0,81.3804553 0,64.2252807 C0,47.0701061 6.68068359,30.9417834 18.8109826,18.8109826 C30.9415325,6.68068359 47.0701061,-1.42608771e-14 64.2252807,-1.42608771e-14 C81.3804553,-1.42608771e-14 97.5090289,6.68068359 109.639579,18.8109826 C121.769878,30.9417834 128.450561,47.0701061 128.450561,64.2252807 C128.450561,74.5055906 126.094046,84.3275427 121.446995,93.4189322 C117.014949,102.089345 110.544503,109.769033 102.735612,115.628586 C100.794804,117.086199 98.5356298,114.075137 100.47719,112.618528 C107.830734,107.100924 113.923355,99.8695588 118.096242,91.7061744 C122.469833,83.1501628 124.687361,73.9042312 124.687361,64.2252807 C124.687361,48.0751314 118.398301,32.8918736 106.978495,21.4720668 C95.5586877,10.0522599 80.37543,3.76320004 64.2252807,3.76320004 C48.0751314,3.76320004 32.8918736,10.0522599 21.4720668,21.4720668 C10.0522599,32.8918736 3.76320004,48.0751314 3.76320004,64.2252807 C3.76320004,80.37543 10.0522599,95.5586877 21.4720668,106.978495 C32.8918736,118.398301 48.0751314,124.687361 64.2252807,124.687361 C73.4338312,124.687361 82.2743407,122.67129 90.5014486,118.694842 C92.6868643,117.639139 94.3243581,121.027022 92.1389424,122.082976 C83.3972796,126.308297 74.0055867,128.450561 64.2252807,128.450561 Z" id="Path"></path>
            <path d="M47.8899819,90.8333629 C45.3149496,90.8333629 43.1869854,88.6773001 43.1869854,86.1225891 L43.1869854,58.9568006 C43.1869854,56.5297875 46.9501855,56.5297875 46.9501855,58.9568006 L46.9501855,86.1225891 C46.9501855,86.8411094 47.7379487,87.2959548 48.3601311,86.9366947 L86.2876681,65.0393863 C86.9098505,64.6801261 86.9098505,63.7701844 86.2876681,63.4111751 L48.3601311,41.5138667 C47.7379487,41.1546065 46.9501855,41.609452 46.9501855,42.3279723 L46.9501855,48.4198405 C46.9501855,50.8468537 43.1869854,50.8468537 43.1869854,48.4198405 L43.1869854,42.3279723 C43.1869854,38.7817835 47.1689528,36.4804612 50.2417311,38.2549354 L88.1692681,60.1522438 C91.2405411,61.9257146 91.2417955,66.5240941 88.1692681,68.2985684 L50.2417311,90.1958768 C49.5053983,90.6208675 48.6975647,90.8333629 47.8899819,90.8333629 Z" id="Path"></path>
        </g>
    </g>
</svg>